# xmcd CD database file
#
# Track frame offsets:
#	150
#	22452
#	40530
#	62497
#	84987
#	106265
#	125783
#	143180
#	159207
#	170090
#	190891
#	207103
#	223849
#	239296
#	256305
#
# Disc length: 3753 seconds
#
# Revision: 0
# Processed by: cddbd v1.5.2PL0 Copyright (c) Steve Scherf et al.
# Submitted via: CDex 1.70beta2
#
DISCID=d40ea70f
DTITLE=北村英治 - SessionⅡ
DYEAR=2004
DGENRE=Jazz
TTITLE0=Tea For Two　二人でお茶を
TTITLE1=They Sey It's Wonderfull　ゼイ セイ ｲｯﾂ ワンダフル
TTITLE2=Close To The Azalea　さつきに寄せて
TTITLE3=Chattanooga Choo Choo　チャタヌガ チューチュー
TTITLE4=These Foolish Things Remind Me Of You　ジーズ フーリッシュ シングス
TTITLE5=After You've Gone　君去りし後
TTITLE6=Over The Rainbow　虹の彼方に
TTITLE7=Sweet Georgia Brown　スウィート ジョージア　ﾌﾞﾗｳﾝ
TTITLE8=Mona Lisa　モナリザ
TTITLE9=I've Got The World On A String　アイヴ ゴット ザ ワールド オン ア ｽﾄﾘﾝｸﾞ
TTITLE10=Heartaches　ハートエイクス
TTITLE11=Chinatown My Chinatown　チャイナタウン マイ チャイナタウン
TTITLE12=Begin The Beguine　ビギン ザ ビギン
TTITLE13=Buona Sera　ボナ セラ
TTITLE14=Rose Room　ローズルーム
EXTD=YEAR: 2004
EXTT0=
EXTT1=
EXTT2=
EXTT3=
EXTT4=
EXTT5=
EXTT6=
EXTT7=
EXTT8=
EXTT9=
EXTT10=
EXTT11=
EXTT12=
EXTT13=
EXTT14=
PLAYORDER=
